<svg width="166" height="56" viewBox="0 0 166 56" fill="none"
  xmlns="http://www.w3.org/2000/svg">
  <path d="M61.208 36V19.2H68.288C69.28 19.2 70.168 19.44 70.952 19.92C71.752 20.384 72.384 21.024 72.848 21.84C73.328 22.64 73.568 23.544 73.568 24.552C73.568 25.592 73.328 26.528 72.848 27.36C72.384 28.176 71.752 28.832 70.952 29.328C70.168 29.808 69.28 30.048 68.288 30.048H64.664V36H61.208ZM64.64 26.904H67.928C68.52 26.904 69.016 26.688 69.416 26.256C69.832 25.808 70.04 25.256 70.04 24.6C70.04 23.944 69.832 23.408 69.416 22.992C69.016 22.56 68.52 22.344 67.928 22.344H64.64V26.904Z" fill="#04D361"/>
  <path d="M81.959 36.24C80.663 36.24 79.511 35.96 78.503 35.4C77.495 34.824 76.703 34.04 76.127 33.048C75.551 32.056 75.263 30.92 75.263 29.64C75.263 28.376 75.551 27.248 76.127 26.256C76.703 25.264 77.495 24.488 78.503 23.928C79.511 23.352 80.663 23.064 81.959 23.064C83.223 23.064 84.359 23.352 85.367 23.928C86.375 24.488 87.167 25.264 87.743 26.256C88.319 27.248 88.607 28.376 88.607 29.64C88.607 30.92 88.319 32.056 87.743 33.048C87.167 34.04 86.375 34.824 85.367 35.4C84.359 35.96 83.223 36.24 81.959 36.24ZM81.959 33.384C82.599 33.384 83.175 33.224 83.687 32.904C84.199 32.568 84.591 32.12 84.863 31.56C85.151 31 85.295 30.36 85.295 29.64C85.295 28.92 85.151 28.28 84.863 27.72C84.591 27.16 84.199 26.72 83.687 26.4C83.175 26.08 82.599 25.92 81.959 25.92C81.303 25.92 80.719 26.08 80.207 26.4C79.695 26.72 79.295 27.16 79.007 27.72C78.719 28.28 78.575 28.92 78.575 29.64C78.575 30.36 78.719 31 79.007 31.56C79.295 32.12 79.695 32.568 80.207 32.904C80.719 33.224 81.303 33.384 81.959 33.384Z" fill="#04D361"/>
  <path d="M96.2122 36.24C95.0922 36.24 94.0922 35.96 93.2122 35.4C92.3322 34.824 91.6362 34.04 91.1242 33.048C90.6282 32.056 90.3802 30.928 90.3802 29.664C90.3802 28.384 90.6282 27.248 91.1242 26.256C91.6362 25.264 92.3322 24.488 93.2122 23.928C94.0922 23.352 95.0922 23.064 96.2122 23.064C96.9802 23.064 97.7082 23.216 98.3962 23.52C99.1002 23.824 99.6682 24.216 100.1 24.696V18.24H103.388V36H100.268L100.22 34.488C99.8042 34.984 99.2362 35.4 98.5162 35.736C97.7962 36.072 97.0282 36.24 96.2122 36.24ZM96.9322 33.504C97.9082 33.504 98.7002 33.152 99.3082 32.448C99.9162 31.728 100.22 30.8 100.22 29.664C100.22 28.512 99.9162 27.584 99.3082 26.88C98.7002 26.16 97.9082 25.8 96.9322 25.8C95.9562 25.8 95.1642 26.16 94.5562 26.88C93.9482 27.584 93.6442 28.512 93.6442 29.664C93.6442 30.8 93.9482 31.728 94.5562 32.448C95.1642 33.152 95.9562 33.504 96.9322 33.504Z" fill="#04D361"/>
  <path d="M112.208 36.24C111.008 36.24 109.928 35.952 108.968 35.376C108.024 34.8 107.272 34.016 106.712 33.024C106.168 32.032 105.896 30.904 105.896 29.64C105.896 28.392 106.168 27.272 106.712 26.28C107.272 25.288 108.024 24.504 108.968 23.928C109.928 23.352 111.008 23.064 112.208 23.064C113.344 23.064 114.376 23.272 115.304 23.688C116.248 24.104 116.984 24.688 117.512 25.44L115.712 27.6C115.376 27.136 114.912 26.744 114.32 26.424C113.728 26.088 113.128 25.92 112.52 25.92C111.848 25.92 111.248 26.088 110.72 26.424C110.208 26.744 109.8 27.184 109.496 27.744C109.208 28.304 109.064 28.936 109.064 29.64C109.064 30.344 109.216 30.976 109.52 31.536C109.824 32.096 110.24 32.544 110.768 32.88C111.296 33.2 111.888 33.36 112.544 33.36C113.168 33.36 113.744 33.224 114.272 32.952C114.8 32.664 115.28 32.264 115.712 31.752L117.512 33.912C116.968 34.616 116.216 35.184 115.256 35.616C114.296 36.032 113.28 36.24 112.208 36.24Z" fill="#04D361"/>
  <path d="M124.472 36.24C123.416 36.24 122.464 35.952 121.616 35.376C120.768 34.8 120.088 34.016 119.576 33.024C119.08 32.032 118.832 30.904 118.832 29.64C118.832 28.344 119.08 27.208 119.576 26.232C120.088 25.24 120.776 24.464 121.64 23.904C122.52 23.344 123.512 23.064 124.616 23.064C125.512 23.064 126.296 23.248 126.968 23.616C127.64 23.968 128.176 24.432 128.576 25.008V23.328H131.84V36H128.552V34.296C128.104 34.856 127.52 35.32 126.8 35.688C126.096 36.056 125.32 36.24 124.472 36.24ZM125.36 33.384C126.336 33.384 127.128 33.04 127.736 32.352C128.344 31.664 128.648 30.76 128.648 29.64C128.648 28.52 128.344 27.616 127.736 26.928C127.128 26.24 126.336 25.896 125.36 25.896C124.4 25.896 123.616 26.24 123.008 26.928C122.416 27.616 122.12 28.52 122.12 29.64C122.12 30.76 122.416 31.664 123.008 32.352C123.616 33.04 124.4 33.384 125.36 33.384Z" fill="#04D361"/>
  <path d="M139.531 36.24C138.363 36.24 137.323 36.048 136.411 35.664C135.499 35.28 134.763 34.736 134.203 34.032L136.267 32.28C136.747 32.808 137.291 33.192 137.899 33.432C138.507 33.656 139.123 33.768 139.747 33.768C140.243 33.768 140.643 33.656 140.947 33.432C141.251 33.208 141.403 32.896 141.403 32.496C141.403 32.144 141.259 31.864 140.971 31.656C140.683 31.464 139.995 31.224 138.907 30.936C137.291 30.52 136.147 29.952 135.475 29.232C134.883 28.592 134.587 27.8 134.587 26.856C134.587 26.104 134.811 25.448 135.259 24.888C135.707 24.312 136.299 23.864 137.035 23.544C137.771 23.224 138.571 23.064 139.435 23.064C140.427 23.064 141.363 23.24 142.243 23.592C143.123 23.944 143.859 24.424 144.451 25.032L142.675 26.976C142.227 26.56 141.707 26.216 141.115 25.944C140.539 25.656 140.003 25.512 139.507 25.512C138.355 25.512 137.779 25.912 137.779 26.712C137.795 27.096 137.971 27.4 138.307 27.624C138.627 27.848 139.355 28.112 140.491 28.416C142.011 28.816 143.083 29.344 143.707 30C144.251 30.56 144.523 31.304 144.523 32.232C144.523 33 144.299 33.688 143.851 34.296C143.419 34.904 142.827 35.384 142.075 35.736C141.323 36.072 140.475 36.24 139.531 36.24Z" fill="#04D361"/>
  <path d="M148.249 36V26.28H145.849V23.328H148.249V20.088H151.513V23.328H154.177V26.28H151.513V36H148.249Z" fill="#04D361"/>
  <path d="M156.376 36V23.328H159.544L159.592 25.416C160.008 24.728 160.552 24.168 161.224 23.736C161.912 23.288 162.632 23.064 163.384 23.064C163.672 23.064 163.936 23.088 164.176 23.136C164.432 23.168 164.648 23.216 164.824 23.28L163.936 26.88C163.76 26.784 163.536 26.704 163.264 26.64C162.992 26.576 162.72 26.544 162.448 26.544C161.664 26.544 161 26.816 160.456 27.36C159.928 27.888 159.664 28.56 159.664 29.376V36H156.376Z" fill="#04D361"/>
  <path d="M41.125 26.8876C41.1494 30.0542 40.3398 33.1714 38.7774 35.9259C38.575 36.2837 38.3607 36.6337 38.1344 36.9759C38.0225 37.1498 37.8772 37.2998 37.7069 37.4171C37.5367 37.5345 37.3448 37.6169 37.1424 37.6595C36.94 37.7021 36.7312 37.7041 36.5281 37.6655C36.3249 37.6268 36.1315 37.5482 35.9589 37.4341C35.7864 37.3201 35.6382 37.173 35.523 37.0013C35.4077 36.8296 35.3277 36.6367 35.2875 36.4338C35.2474 36.231 35.2479 36.0222 35.2891 35.8195C35.3303 35.6168 35.4113 35.4244 35.5274 35.2532C37.0185 32.9897 37.8685 30.3644 37.987 27.6564C38.1054 24.9484 37.4879 22.2589 36.2001 19.8738C34.9123 17.4887 33.0022 15.4971 30.673 14.1107C28.3438 12.7243 25.6825 11.9949 22.9719 12.0001C17.7618 12.0103 13.1422 14.7454 10.4571 18.8321C8.85189 21.2703 7.99772 24.1259 8.0005 27.045C8.00327 29.9641 8.86288 32.8182 10.4727 35.2532C10.7009 35.5991 10.7824 36.0216 10.6992 36.4275C10.616 36.8335 10.3749 37.1898 10.0289 37.4181C9.68302 37.6463 9.2606 37.7278 8.85461 37.6445C8.44863 37.5613 8.09233 37.3202 7.8641 36.9743C6.0791 34.2655 5.05381 31.1272 4.89521 27.887C4.73662 24.6468 5.45053 21.4235 6.96245 18.5533C8.47437 15.6831 10.7289 13.2712 13.4907 11.5694C16.2526 9.86761 19.4206 8.93822 22.6641 8.87822C22.7782 8.87588 22.8914 8.8751 23.0047 8.8751C27.7949 8.86523 32.3933 10.7564 35.7905 14.1334C39.1878 17.5105 41.1063 22.0975 41.125 26.8876Z" fill="#494D4B"/>
  <g filter="url(#filter0_d)">
    <path d="M12.0659 29.7944L14.8978 43.8819C15.0678 44.7276 15.8911 45.2753 16.7368 45.1053C17.5825 44.9353 18.1303 44.1119 17.9603 43.2663L15.1284 29.1788C14.9584 28.3331 14.135 27.7853 13.2893 27.9553C12.4436 28.1253 11.8959 28.9487 12.0659 29.7944Z" fill="#04D361"/>
  </g>
  <path d="M14.8438 43.5641L14.1258 43.7086C13.059 43.9234 11.9504 43.7225 11.0268 43.147C10.1032 42.5715 9.43432 41.6648 9.15706 40.6125C9.13597 40.5313 9.11644 40.45 9.10003 40.3672L8.07112 35.2555C7.84815 34.1459 8.07485 32.9931 8.70141 32.0506C9.32796 31.108 10.3031 30.4528 11.4125 30.2289L12.1305 30.0844L13.3899 36.3406L14.8438 43.5641Z" fill="#494D4B"/>
  <path d="M14.8438 43.5641L14.1259 43.7086C13.059 43.9234 11.9504 43.7225 11.0268 43.147C10.1032 42.5715 9.43437 41.6649 9.1571 40.6125C10.6745 39.2981 12.0895 37.87 13.3899 36.3407L14.8438 43.5641Z" fill="#494D4B"/>
  <path d="M39.1477 34.0875L38.7774 35.9258C38.575 36.2836 38.3607 36.6336 38.1344 36.9758C38.0225 37.1497 37.8772 37.2997 37.7069 37.4171C37.5366 37.5344 37.3448 37.6168 37.1424 37.6594C36.94 37.702 36.7312 37.7041 36.5281 37.6654C36.3249 37.6267 36.1315 37.5481 35.9589 37.4341C35.7864 37.3201 35.6382 37.1729 35.5229 37.0012C35.4077 36.8295 35.3277 36.6366 35.2875 36.4338C35.2474 36.2309 35.2479 36.0221 35.2891 35.8194C35.3303 35.6167 35.4112 35.4243 35.5274 35.2531C36.5865 33.6502 37.3258 31.8577 37.7047 29.9742C38.2927 30.4668 38.7371 31.1089 38.991 31.8327C39.245 32.5566 39.2991 33.3355 39.1477 34.0875Z" fill="#494D4B"/>
  <g filter="url(#filter1_d)">
    <path d="M37.2953 15.8297L35.0539 18.0711C33.6573 16.1825 31.836 14.6489 29.7371 13.5943C27.6383 12.5396 25.3208 11.9935 22.9719 12C17.7617 12.0102 13.1422 14.7453 10.457 18.832L8.18359 16.5586C9.82274 14.2294 11.9884 12.3198 14.5046 10.9853C17.0207 9.65069 19.8163 8.92875 22.6641 8.87814C22.7781 8.8758 22.8914 8.87502 23.0047 8.87502C25.7591 8.86885 28.4786 9.49223 30.9553 10.6976C33.4321 11.9029 35.6006 13.6583 37.2953 15.8297Z" fill="#8257E5"/>
  </g>
  <g filter="url(#filter2_d)">
    <path d="M30.8464 29.1635L28.0145 43.251C27.8445 44.0967 28.3922 44.9201 29.2379 45.0901C30.0836 45.2601 30.907 44.7123 31.077 43.8666L33.9089 29.7791C34.0789 28.9335 33.5311 28.1101 32.6854 27.9401C31.8397 27.7701 31.0164 28.3178 30.8464 29.1635Z" fill="#04D361"/>
  </g>
  <path d="M37.9289 35.2555L36.9 40.3672C36.6766 41.4767 36.0216 42.4521 35.0791 43.0787C34.1366 43.7054 32.9838 43.9319 31.8742 43.7086L31.1562 43.5641L31.9 39.8711L33.8695 30.0844L34.5875 30.2289C35.6968 30.4531 36.672 31.108 37.2992 32.05C37.3856 32.1799 37.4646 32.3144 37.5359 32.4531C37.9817 33.3154 38.1203 34.3038 37.9289 35.2555Z" fill="#494D4B"/>
  <path d="M37.9289 35.2555L36.9 40.3672C36.6766 41.4768 36.0216 42.4521 35.0791 43.0788C34.1366 43.7054 32.9838 43.932 31.8742 43.7086L31.1562 43.5641L31.9 39.8711C34.0403 37.6086 35.9299 35.1215 37.5359 32.4531C37.9817 33.3154 38.1203 34.3039 37.9289 35.2555Z" fill="#494D4B"/>
  <defs>
    <filter id="filter0_d" x="2.03494" y="17.9244" width="25.9563" height="37.2119" filterUnits="userSpaceOnUse" color-interpolation-filters="sRGB">
      <feFlood flood-opacity="0" result="BackgroundImageFix"/>
      <feColorMatrix in="SourceAlpha" type="matrix" values="0 0 0 0 0 0 0 0 0 0 0 0 0 0 0 0 0 0 127 0"/>
      <feOffset/>
      <feGaussianBlur stdDeviation="5"/>
      <feColorMatrix type="matrix" values="0 0 0 0 0.0156863 0 0 0 0 0.827451 0 0 0 0 0.380392 0 0 0 1 0"/>
      <feBlend mode="normal" in2="BackgroundImageFix" result="effect1_dropShadow"/>
      <feBlend mode="normal" in="SourceGraphic" in2="effect1_dropShadow" result="shape"/>
    </filter>
    <filter id="filter1_d" x="0.183594" y="0.874977" width="45.1117" height="25.957" filterUnits="userSpaceOnUse" color-interpolation-filters="sRGB">
      <feFlood flood-opacity="0" result="BackgroundImageFix"/>
      <feColorMatrix in="SourceAlpha" type="matrix" values="0 0 0 0 0 0 0 0 0 0 0 0 0 0 0 0 0 0 127 0"/>
      <feOffset/>
      <feGaussianBlur stdDeviation="4"/>
      <feColorMatrix type="matrix" values="0 0 0 0 0.509804 0 0 0 0 0.341176 0 0 0 0 0.898039 0 0 0 1 0"/>
      <feBlend mode="normal" in2="BackgroundImageFix" result="effect1_dropShadow"/>
      <feBlend mode="normal" in="SourceGraphic" in2="effect1_dropShadow" result="shape"/>
    </filter>
    <filter id="filter2_d" x="17.9836" y="17.9092" width="25.9563" height="37.2119" filterUnits="userSpaceOnUse" color-interpolation-filters="sRGB">
      <feFlood flood-opacity="0" result="BackgroundImageFix"/>
      <feColorMatrix in="SourceAlpha" type="matrix" values="0 0 0 0 0 0 0 0 0 0 0 0 0 0 0 0 0 0 127 0"/>
      <feOffset/>
      <feGaussianBlur stdDeviation="5"/>
      <feColorMatrix type="matrix" values="0 0 0 0 0.0156863 0 0 0 0 0.827451 0 0 0 0 0.380392 0 0 0 1 0"/>
      <feBlend mode="normal" in2="BackgroundImageFix" result="effect1_dropShadow"/>
      <feBlend mode="normal" in="SourceGraphic" in2="effect1_dropShadow" result="shape"/>
    </filter>
  </defs>
</svg>
